<?xml version="1.0" encoding="utf-8"?>
<!-- Generator: Adobe Illustrator 25.2.1, SVG Export Plug-In . SVG Version: 6.00 Build 0)  -->
<svg version="1.1"
	 id="svg1" inkscape:version="0.38.1" sodipodi:docname="lemon.svg" xmlns:inkscape="http://www.inkscape.org/namespaces/inkscape" xmlns:sodipodi="http://sodipodi.sourceforge.net/DTD/sodipodi-0.dtd"
	 xmlns="http://www.w3.org/2000/svg" xmlns:xlink="http://www.w3.org/1999/xlink" x="0px" y="0px" viewBox="0 0 400 400"
	 style="enable-background:new 0 0 400 400;" xml:space="preserve">
<style type="text/css">
	.st0{fill-rule:evenodd;clip-rule:evenodd;fill:url(#path827_1_);stroke:#000000;stroke-width:10;stroke-linejoin:round;}
	.st1{fill-rule:evenodd;clip-rule:evenodd;fill-opacity:0.1333;}
	.st2{fill-rule:evenodd;clip-rule:evenodd;fill:#FFFFFF;fill-opacity:0.7;}
</style>
<sodipodi:namedview  bordercolor="#666666" borderopacity="1.0" id="base" inkscape:cx="120.13018" inkscape:cy="204.09312" inkscape:pageopacity="0.0" inkscape:pageshadow="2" inkscape:window-height="775" inkscape:window-width="910" inkscape:window-x="119" inkscape:window-y="24" inkscape:zoom="1.3195079" pagecolor="#ffffff">
	</sodipodi:namedview>
<g id="g838">
	
		<radialGradient id="path827_1_" cx="-104.4327" cy="596.1441" r="0.3818" gradientTransform="matrix(456.0529 0 0 -340.7253 47806.1602 203308.4375)" gradientUnits="userSpaceOnUse">
		<stop  offset="0" style="stop-color:#FFFF00"/>
		<stop  offset="1" style="stop-color:#FFE300"/>
	</radialGradient>
	<path id="path827" sodipodi:nodetypes="ccccc" class="st0" d="M68.7,148.1c160-138.5,405.7-2,402.4,141.5
		c26.4,25.6-3.3,53.6-19.8,61C309.5,525.5,17.6,382,34.9,237.7C12.8,174.3,32.4,155.6,68.7,148.1z"/>
	<path id="path828" sodipodi:nodetypes="cccccc" class="st1" d="M44.3,268c21.2-21.2,23.8,143.8,333.8,82.5
		c-6.2-6.2-40-148.8,80-101.2c46.9,14.4-99.4-9.7-47.5,90c8,13.1,5.6,13.1,27.5,18.8C305.6,500.5,46.8,390.5,44.3,268z"/>
	<path id="path829" sodipodi:nodetypes="ccc" class="st2" d="M68.1,155.8c56.3-65.3,245.6-111.9,370,47.5
		C395.6,249.6,275.6,49.6,68.1,155.8z"/>
	<path id="path830" sodipodi:nodetypes="ccc" class="st2" d="M469.3,295.5c14.3,17.5,1.2,37.5-8.8,35
		C381.8,309.2,424.3,288,469.3,295.5z"/>
</g>
<rdf:RDF  xmlns="http://web.resource.org/cc/" xmlns:dc="http://purl.org/dc/elements/1.1/" xmlns:rdf="http://www.w3.org/1999/02/22-rdf-syntax-ns#">
	<Work  rdf:about="">
		<dc:title>Clipart by Nicu Buculei - pear</dc:title>
		<dc:rights>
			<Agent>
				<dc:title>Nicu Buculei</dc:title>
			</Agent>
		</dc:rights>
		<dc:type  rdf:resource="http://purl.org/dc/dcmitype/StillImage"></dc:type>
		<license  rdf:resource="http://web.resource.org/cc/PublicDomain"></license>
	</Work>
	<License  rdf:about="http://web.resource.org/cc/PublicDomain">
		<permits  rdf:resource="http://web.resource.org/cc/Reproduction"></permits>
		<permits  rdf:resource="http://web.resource.org/cc/Distribution"></permits>
		<permits  rdf:resource="http://web.resource.org/cc/DerivativeWorks"></permits>
	</License>
</rdf:RDF>
</svg>
